#!OML:ASF F:\VICON\USERDATA\INSTALL\rory3\rory3.ASF
:FULLY-SPECIFIED
:DEGREES
27
root 0.7657916658497166 17.94797721418189 1.4052642148392955 -0.4406783757954953 -1.6920570524908625 -6.088795887786637
lfemur -24.537547802453773 -5.707829502314284 -11.291382465019005
ltibia 17.394571038764667
lfoot -5.317283916729222 7.449494348374574
ltoes -6.713909926621967
rfemur 7.1717398855610615 4.1172582175612185 33.1902453066965
rtibia 24.57821305432849
rfoot -9.973675838881945 -6.923559159834726
rtoes 3.856947640014585
lowerback 9.584160395644703 1.7620357351569813 5.775846894921274
upperback -0.2625154926694019 3.4517031119711588 2.072229227384566
thorax -5.75213814868214 1.6288231779640012 -2.2052812946015
lowerneck -16.203726712563732 -3.6492502087854395 -1.4880206230745037
upperneck 21.104236880178494 -5.257379879372624 1.7011071982731651
head 9.340868354491601 -2.3584327807213015 0.13666828798854852
lclavicle 2.991114033163199e-16 5.53145615160117e-17
lhumerus -36.93229061502054 8.083049739908054 81.35448053788708
lradius 23.027361705630017
lwrist 5.86644166481747
lhand -30.388583408447744 18.401657504901326
lfingers 7.125020000000001
lthumb -3.5176622300716582 48.49178912220912
rclavicle 2.991114032449437e-16 5.531456146534169e-17
rhumerus -19.92571950512277 -12.026296648021184 -80.93004653439758
rradius 34.059277807027186
rwrist -0.18124289428519713
rhand -18.715122862991286 22.70952326757255
rfingers 7.125020000000001
rthumb 7.690594734571054 -6.929274656076165
28
root 0.8235401878512332 17.938402786634224 1.919829526199651 -0.7256294999451964 -1.9056126710374355 -5.548987679413051
lfemur -24.77039130950678 -4.2309987336020045 -13.165471673697645
ltibia 17.20129609466703
lfoot -3.5161442599144923 5.579864572326618
ltoes -5.673451109601098
rfemur 7.763524267878784 4.1493409714171605 32.130039824126946
rtibia 26.048706020352363
rfoot -8.92472302244634 -6.246964521767508
rtoes 3.417870094638601
lowerback 9.60694585944115 1.8063046768539188 5.29748539310462
upperback -0.25909726417192347 3.4691636876908865 1.9558000775938413
thorax -5.784931118162078 1.6513031720204554 -1.9048413899693502
lowerneck -16.079340578841094 -3.6697859545407345 -1.5301300174281702
upperneck 21.081741883815436 -5.255581171591796 1.6526354006416644
head 9.352973563891208 -2.365927974142401 0.14404692763338883
lclavicle 2.9911140331114685e-16 5.531456151281326e-17
lhumerus -37.29042087039068 8.08162910124682 81.04461613373051
lradius 21.932000681626384
lwrist 5.038249503527507
lhand -28.5867774581515 22.329403955125972
lfingers 7.125020000000001
lthumb -2.078071684096546 51.62150160877076
rclavicle 2.9911140324818644e-16 5.5314561468115015e-17
rhumerus -19.875997067576726 -12.539976662980866 -80.82677941295475
rradius 34.497641260352935
rwrist 0.2380997031315073
rhand -18.740450467870257 23.005974909743955
rfingers 7.125020000000001
rthumb 7.666968109573295 -6.630741767333227
29
root 0.8851564774342224 17.965515095353876 2.5814382612714937 -1.2123258114588222 -1.9401636906455755 -5.113498598548617
lfemur -24.5342770798737 -2.9200832726691623 -14.515184647816648
ltibia 20.425892830412355
lfoot -1.9934228733422508 2.632141990628094
ltoes -2.963404779555737
rfemur 7.59837912603321 4.219068611941454 31.256522617347066
rtibia 30.082043666528467
rfoot -6.301696290870779 -5.519574183256397
rtoes 3.6509405860469943
lowerback 9.801254266756523 1.7743091107372029 4.852356752041836
upperback -0.16283969923981345 3.4378199766150255 1.8172945080849818
thorax -5.705860052999993 1.6827559914280803 -1.7230377635676024
lowerneck -15.981333807359494 -3.7331345075229025 -1.4863935902036272
upperneck 21.218850238718506 -5.415864208035342 1.848878886506776
head 9.384708765003321 -2.4279944359080963 0.24620746395497822
lclavicle 2.9911140330470147e-16 5.531456150934342e-17
lhumerus -37.55200839026092 8.348167647138064 80.51607964819881
lradius 20.93643183514464
lwrist 3.964212191005491
lhand -29.24925686943446 19.888968112625232
lfingers 7.125020000000001
lthumb -2.5251169027441582 49.700033186694505
rclavicle 2.991114032331792e-16 5.531456145851419e-17
rhumerus -20.7218105367604 -13.5453267153199 -80.65368132485004
rradius 34.30883090227242
rwrist 0.8417766672384617
rhand -18.614126267017237 23.55163181517972
rfingers 7.125020000000001
rthumb 7.858330344215258 -5.937789387970259
30
root 0.9425817193626216 18.040237885808384 2.815819951438974 -1.9028143388219991 -1.8153488579100698 -4.361401687009739
lfemur -22.725541882000904 -2.359555305567995 -16.25943565215512
ltibia 23.315698695567022
lfoot -3.977898587250102 0.2992567294432211
ltoes -0.021265013590972437
rfemur 6.590457669721305 3.96972622336531 29.772530951596096
rtibia 36.75259797163062
rfoot -1.8342970845541142 -4.209515621365646
rtoes 7.128741088852247
lowerback 10.20276865791048 1.644894290104777 4.257881053222208
upperback -0.11143661481512825 3.1000748602208166 1.6687726529785745
thorax -5.733700756132329 1.5293596682319026 -1.4136896131384697
lowerneck -15.968131081938086 -3.803878534596426 -1.4445498734741795
upperneck 21.505169650823184 -5.59298833034556 1.9036347513154737
head 9.48565904521337 -2.4908158967336305 0.2512032524074881
lclavicle 2.9911140331756207e-16 5.531456151994691e-17
lhumerus -37.65544788139725 8.75525826866563 80.01873900251513
lradius 20.41914503103143
lwrist 3.5522643187461114
lhand -28.061963438294352 21.352306345722162
lfingers 7.125020000000001
lthumb -1.381568987284154 50.977872544421736
rclavicle 2.99111403231928e-16 5.531456145883144e-17
rhumerus -22.189873608913175 -14.804763690438442 -80.31108281187264
rradius 33.894248192749934
rwrist 1.6076472813753564
rhand -18.708857007434464 23.605759265293994
rfingers 7.125020000000001
rthumb 7.727652795036551 -5.929186121498597
